<?xml version="1.0" standalone="no"?><!DOCTYPE svg PUBLIC "-//W3C//DTD SVG 1.1//EN" "http://www.w3.org/Graphics/SVG/1.1/DTD/svg11.dtd"><svg t="1558000371986" class="icon" style="" viewBox="0 0 1117 1024" version="1.1" xmlns="http://www.w3.org/2000/svg" p-id="5832" xmlns:xlink="http://www.w3.org/1999/xlink" width="218.1640625" height="200"><defs><style type="text/css"></style></defs><path d="M1116.625455 251.112727c0-30.673455-10.705455-56.692364-32.116364-78.103272a107.101091 107.101091 0 0 0-78.661818-32.628364H884.829091V96.349091c0-25.041455-6.283636-45.009455-18.804364-59.810909-16.756364-19.456-43.659636-29.184-80.523636-29.184H342.016c-36.910545 0-63.767273 9.774545-80.570182 29.184-12.846545 15.173818-19.269818 35.095273-19.269818 59.810909v43.985454H120.087273c-30.673455 0-56.692364 10.891636-78.103273 32.581819-21.783273 21.457455-32.628364 47.476364-32.628364 78.149818v619.845818c0 30.626909 10.845091 56.785455 32.581819 78.568727 21.410909 21.410909 47.476364 32.116364 78.149818 32.116364h885.76a107.985455 107.985455 0 0 0 78.568727-32.116364c21.410909-21.736727 32.116364-47.941818 32.116364-78.568727V251.112727z m-63.767273-47.010909c12.846545 13.218909 19.269818 28.858182 19.269818 47.010909v288.628364h-355.886545c-4.049455-33.978182-18.711273-63.674182-44.032-88.948364a147.921455 147.921455 0 0 0-109.195637-45.474909c-43.194182 0-79.918545 15.173818-110.266182 45.474909a148.293818 148.293818 0 0 0-44.450909 88.948364H53.899636V251.112727c0-18.152727 6.423273-33.792 19.269819-47.010909 13.172364-12.8 28.858182-19.223273 46.964363-19.223273h885.76c18.432 0 34.071273 6.423273 46.917818 19.269819z m19.269818 666.856727c0 18.432-6.423273 34.071273-19.316364 46.917819a63.906909 63.906909 0 0 1-46.917818 19.316363H120.087273c-18.152727 0-33.792-6.469818-47.010909-19.316363a63.906909 63.906909 0 0 1-19.223273-46.917819V582.749091h354.862545c4.375273 33.652364 19.083636 62.836364 43.985455 87.505454 30.347636 30.301091 67.072 45.474909 110.266182 45.47491 8.564364 0 22.388364-1.489455 41.518545-4.468364a23.133091 23.133091 0 0 0 13.312-10.845091 20.247273 20.247273 0 0 0 2.466909-16.802909 23.458909 23.458909 0 0 0-27.694545-15.825455 92.16 92.16 0 0 1-29.602909 3.956364 106.589091 106.589091 0 0 1-78.103273-32.628364 106.309818 106.309818 0 0 1-33.140364-78.615272c0-30.952727 10.891636-57.157818 32.628364-78.568728 21.410909-21.410909 47.476364-32.116364 78.103273-32.116363 30.626909 0 56.832 10.845091 78.568727 32.581818 21.410909 21.410909 32.116364 47.476364 32.116364 78.103273 0 23.738182-6.516364 44.823273-19.735273 63.301818a21.876364 21.876364 0 0 0 5.911273 30.626909 21.876364 21.876364 0 0 0 30.673454-5.911273c14.056727-20.386909 22.807273-42.309818 26.205091-65.768727h355.886546v288.209454zM296.029091 63.255273c8.238545-7.586909 23.272727-11.357091 44.962909-11.357091h444.369455c21.783273 0 36.770909 3.956364 45.009454 11.869091 6.888727 6.609455 10.379636 17.454545 10.379636 32.581818v44.032H286.208V96.349091c0-15.499636 3.258182-26.530909 9.867636-33.140364z" fill="#ffffff" p-id="5833"></path></svg>