<?xml version="1.0" encoding="utf-8"?>
<!-- Generator: Adobe Illustrator 23.0.2, SVG Export Plug-In . SVG Version: 6.00 Build 0)  -->
<svg version="1.1" id="图层_1" xmlns="http://www.w3.org/2000/svg" xmlns:xlink="http://www.w3.org/1999/xlink" x="0px" y="0px"
	 viewBox="0 0 993.8 426.1" style="enable-background:new 0 0 993.8 426.1;" xml:space="preserve">
<style type="text/css">
	.st0{fill:#FFFFFF;}
	.st1{font-family:'STSongti-SC-Regular';}
	.st2{font-size:10.1071px;}
	.st3{font-size:9.9016px;}
	.st4{fill:none;stroke:#FFFFFF;stroke-miterlimit:10;}
	.st5{fill:none;stroke:#FFFFFF;stroke-miterlimit:10;stroke-dasharray:0.9993,3.9972;}
	.st6{fill:url(#XMLID_70_);}
	.st7{fill:url(#XMLID_75_);}
	.st8{fill:url(#XMLID_77_);}
	.st9{fill:url(#XMLID_78_);}
	.st10{fill:url(#XMLID_79_);}
	.st11{fill:url(#XMLID_80_);}
	.st12{fill:url(#XMLID_81_);}
	.st13{fill:url(#XMLID_83_);}
	.st14{fill:url(#XMLID_84_);}
	.st15{fill:url(#XMLID_85_);}
	.st16{fill:url(#XMLID_86_);}
	.st17{fill:url(#XMLID_87_);}
	.st18{fill:url(#XMLID_93_);}
	.st19{fill:url(#XMLID_95_);}
	.st20{fill:#106CFF;}
	.st21{font-family:'PingFangSC-Semibold-GBpc-EUC-H';}
	.st22{font-size:24px;}
	.st23{font-size:10.1565px;}
	.st24{font-size:10.1566px;}
	.st25{fill:none;stroke:#FFFFFF;stroke-miterlimit:10;stroke-dasharray:0.9978,3.9912;}
	.st26{fill:url(#XMLID_97_);}
	.st27{fill:url(#XMLID_99_);}
	.st28{fill:url(#XMLID_101_);}
	.st29{fill:url(#XMLID_103_);}
	.st30{fill:url(#XMLID_105_);}
	.st31{fill:url(#XMLID_107_);}
	.st32{fill:url(#XMLID_109_);}
	.st33{fill:url(#XMLID_111_);}
	.st34{fill:url(#XMLID_113_);}
	.st35{fill:url(#XMLID_115_);}
	.st36{fill:url(#XMLID_117_);}
	.st37{fill:url(#XMLID_119_);}
	.st38{fill:url(#XMLID_120_);}
	.st39{font-family:'PingFangSC-Light-GBpc-EUC-H';}
	.st40{font-size:12px;}
	.st41{fill:url(#XMLID_121_);}
</style>
<rect width="993.8" height="426.1"/>
<g>
	<text id="XMLID_224_" transform="matrix(0.9589 0 0 1 50.4561 329.0029)" class="st0 st1 st2">0</text>
	<g id="XMLID_221_">
		<text transform="matrix(0.9589 0 0 1 36.8203 295.1855)" class="st0 st1 st2">6000</text>
	</g>
	<g id="XMLID_2_">
		<text transform="matrix(0.9589 0 0 1 50.4561 329.0029)" class="st0 st1 st2">0</text>
	</g>
	<g id="XMLID_218_">
		<text transform="matrix(0.6921 -0.7218 0.6921 0.7218 72.989 348.2323)" class="st0 st1 st3">3月</text>
	</g>
	<g id="XMLID_176_">
		<text transform="matrix(0.6921 -0.7218 0.6921 0.7218 105.2712 348.2325)" class="st0 st1 st3">4月</text>
	</g>
	<g id="XMLID_185_">
		<text transform="matrix(0.6921 -0.7218 0.6921 0.7218 135.4982 348.2333)" class="st0 st1 st3">5月</text>
	</g>
	<g id="XMLID_187_">
		<text transform="matrix(0.6921 -0.7218 0.6921 0.7218 193.8949 348.2331)" class="st0 st1 st3">7月</text>
	</g>
	<g id="XMLID_191_">
		<text transform="matrix(0.6921 -0.7218 0.6921 0.7218 226.1769 348.2334)" class="st0 st1 st3">8月</text>
	</g>
	<g id="XMLID_194_">
		<text transform="matrix(0.6921 -0.7218 0.6921 0.7218 256.403 348.2322)" class="st0 st1 st3">9月</text>
	</g>
	<g id="XMLID_189_">
		<text transform="matrix(0.6921 -0.7218 0.6921 0.7218 283.4158 351.5848)" class="st0 st1 st3">10月</text>
	</g>
	<g id="XMLID_196_">
		<text transform="matrix(0.6921 -0.7218 0.6921 0.7218 313.6402 351.584)" class="st0 st1 st3">11月</text>
	</g>
	<g id="XMLID_198_">
		<text transform="matrix(0.6921 -0.7218 0.6921 0.7218 343.8684 351.5849)" class="st0 st1 st3">12月</text>
	</g>
	<g id="XMLID_200_">
		<text transform="matrix(0.6921 -0.7218 0.6921 0.7218 379.3631 348.2321)" class="st0 st1 st3">1月</text>
	</g>
	<g id="XMLID_202_">
		<text transform="matrix(0.6921 -0.7218 0.6921 0.7218 409.59 348.2329)" class="st0 st1 st3">2月</text>
	</g>
	<g id="XMLID_204_">
		<text transform="matrix(0.6921 -0.7218 0.6921 0.7218 436.1775 352.0277)" class="st0 st1 st3">全年</text>
	</g>
	<g id="XMLID_208_">
		<text transform="matrix(0.6921 -0.7218 0.6921 0.7218 165.7247 348.233)" class="st0 st1 st3">6月</text>
	</g>
	<g id="XMLID_209_">
		<text transform="matrix(0.9589 0 0 1 36.8203 261.3662)" class="st0 st1 st2">8000</text>
	</g>
	<text id="XMLID_229_" transform="matrix(0.9589 0 0 1 32.2749 227.5469)" class="st0 st1 st2">10000</text>
	<text id="XMLID_230_" transform="matrix(0.9589 0 0 1 32.2749 193.7285)" class="st0 st1 st2">12000</text>
	<text id="XMLID_233_" transform="matrix(0.9589 0 0 1 32.2749 159.9102)" class="st0 st1 st2">14000</text>
	<text id="XMLID_241_" transform="matrix(0.9589 0 0 1 32.2749 126.0913)" class="st0 st1 st2">16000</text>
	<g id="XMLID_319_">
		<g id="XMLID_11_">
			<line id="XMLID_54_" class="st4" x1="67.8" y1="119.9" x2="67.9" y2="119.9"/>
			<line id="XMLID_52_" class="st5" x1="68.9" y1="119.9" x2="467.1" y2="119.9"/>
			<line id="XMLID_50_" class="st4" x1="467.5" y1="119.9" x2="467.7" y2="119.9"/>
		</g>
	</g>
	<g id="XMLID_268_">
		<g id="XMLID_71_">
			<line id="XMLID_74_" class="st4" x1="67.8" y1="291.9" x2="67.9" y2="291.9"/>
			<line id="XMLID_73_" class="st5" x1="68.9" y1="291.9" x2="467.1" y2="291.9"/>
			<line id="XMLID_72_" class="st4" x1="467.5" y1="291.9" x2="467.7" y2="291.9"/>
		</g>
	</g>
	<g id="XMLID_24_">
		<g id="XMLID_26_">
			<line id="XMLID_29_" class="st4" x1="67.8" y1="326.5" x2="67.9" y2="326.5"/>
			<line id="XMLID_28_" class="st5" x1="68.9" y1="326.5" x2="467.1" y2="326.5"/>
			<line id="XMLID_27_" class="st4" x1="467.5" y1="326.5" x2="467.7" y2="326.5"/>
		</g>
	</g>
	<g id="XMLID_281_">
		<g id="XMLID_66_">
			<line id="XMLID_69_" class="st4" x1="67.8" y1="224.2" x2="67.9" y2="224.2"/>
			<line id="XMLID_68_" class="st5" x1="68.9" y1="224.2" x2="467.1" y2="224.2"/>
			<line id="XMLID_67_" class="st4" x1="467.5" y1="224.2" x2="467.7" y2="224.2"/>
		</g>
	</g>
	<g id="XMLID_1_">
		<g id="XMLID_20_">
			<line id="XMLID_23_" class="st4" x1="67.8" y1="256.9" x2="67.9" y2="256.9"/>
			<line id="XMLID_22_" class="st5" x1="68.9" y1="256.9" x2="467.1" y2="256.9"/>
			<line id="XMLID_21_" class="st4" x1="467.5" y1="256.9" x2="467.7" y2="256.9"/>
		</g>
	</g>
	<g id="XMLID_304_">
		<g id="XMLID_61_">
			<line id="XMLID_64_" class="st4" x1="67.8" y1="189.2" x2="67.9" y2="189.2"/>
			<line id="XMLID_63_" class="st5" x1="68.9" y1="189.2" x2="467.1" y2="189.2"/>
			<line id="XMLID_62_" class="st4" x1="467.5" y1="189.2" x2="467.7" y2="189.2"/>
		</g>
	</g>
	<g id="XMLID_313_">
		<g id="XMLID_56_">
			<line id="XMLID_59_" class="st4" x1="67.8" y1="155.7" x2="67.9" y2="155.7"/>
			<line id="XMLID_58_" class="st5" x1="68.9" y1="155.7" x2="467.1" y2="155.7"/>
			<line id="XMLID_57_" class="st4" x1="467.5" y1="155.7" x2="467.7" y2="155.7"/>
		</g>
	</g>
	
		<linearGradient id="XMLID_70_" gradientUnits="userSpaceOnUse" x1="79.3336" y1="101.4951" x2="79.3336" y2="216.7527" gradientTransform="matrix(1 0 0 -1 0 428)">
		<stop  offset="0" style="stop-color:#FFA415"/>
		<stop  offset="1" style="stop-color:#FF4100"/>
	</linearGradient>
	<rect id="XMLID_248_" x="73.7" y="211.2" class="st6" width="11.2" height="115.3"/>
	
		<linearGradient id="XMLID_75_" gradientUnits="userSpaceOnUse" x1="79.3336" y1="44.4926" x2="79.3336" y2="54.5064" gradientTransform="matrix(1 0 0 -1 0 428)">
		<stop  offset="0" style="stop-color:#FFA415"/>
		<stop  offset="1" style="stop-color:#FF4100"/>
	</linearGradient>
	<rect id="XMLID_19_" x="73.7" y="373.5" class="st7" width="11.2" height="10"/>
	
		<linearGradient id="XMLID_77_" gradientUnits="userSpaceOnUse" x1="109.9411" y1="101.4951" x2="109.9411" y2="257.9541" gradientTransform="matrix(1 0 0 -1 0 428)">
		<stop  offset="0" style="stop-color:#FFA415"/>
		<stop  offset="1" style="stop-color:#FF4100"/>
	</linearGradient>
	<rect id="XMLID_249_" x="104.4" y="170" class="st8" width="11.2" height="156.5"/>
	
		<linearGradient id="XMLID_78_" gradientUnits="userSpaceOnUse" x1="140.5729" y1="101.4951" x2="140.5729" y2="241.1599" gradientTransform="matrix(1 0 0 -1 0 428)">
		<stop  offset="0" style="stop-color:#FFA415"/>
		<stop  offset="1" style="stop-color:#FF4100"/>
	</linearGradient>
	<rect id="XMLID_250_" x="135" y="186.8" class="st9" width="11.2" height="139.7"/>
	
		<linearGradient id="XMLID_79_" gradientUnits="userSpaceOnUse" x1="171.2047" y1="101.4951" x2="171.2047" y2="270.6509" gradientTransform="matrix(1 0 0 -1 0 428)">
		<stop  offset="0" style="stop-color:#FFA415"/>
		<stop  offset="1" style="stop-color:#FF4100"/>
	</linearGradient>
	<rect id="XMLID_251_" x="165.6" y="157.3" class="st10" width="11.2" height="169.2"/>
	
		<linearGradient id="XMLID_80_" gradientUnits="userSpaceOnUse" x1="201.8123" y1="101.4951" x2="201.8123" y2="264.6313" gradientTransform="matrix(1 0 0 -1 0 428)">
		<stop  offset="0" style="stop-color:#FFA415"/>
		<stop  offset="1" style="stop-color:#FF4100"/>
	</linearGradient>
	<rect id="XMLID_252_" x="196.2" y="163.4" class="st11" width="11.2" height="163.1"/>
	
		<linearGradient id="XMLID_81_" gradientUnits="userSpaceOnUse" x1="232.4441" y1="101.4699" x2="232.4441" y2="237.7202" gradientTransform="matrix(1 0 0 -1 0 428)">
		<stop  offset="0" style="stop-color:#FFA415"/>
		<stop  offset="1" style="stop-color:#FF4100"/>
	</linearGradient>
	<rect id="XMLID_253_" x="226.9" y="190.3" class="st12" width="11.2" height="136.3"/>
	
		<linearGradient id="XMLID_83_" gradientUnits="userSpaceOnUse" x1="263.0516" y1="101.4699" x2="263.0516" y2="240.8817" gradientTransform="matrix(1 0 0 -1 0 428)">
		<stop  offset="0" style="stop-color:#FFA415"/>
		<stop  offset="1" style="stop-color:#FF4100"/>
	</linearGradient>
	<rect id="XMLID_254_" x="257.5" y="187.1" class="st13" width="11.2" height="139.4"/>
	
		<linearGradient id="XMLID_84_" gradientUnits="userSpaceOnUse" x1="293.6834" y1="101.4699" x2="293.6834" y2="256.4871" gradientTransform="matrix(1 0 0 -1 0 428)">
		<stop  offset="0" style="stop-color:#FFA415"/>
		<stop  offset="1" style="stop-color:#FF4100"/>
	</linearGradient>
	<rect id="XMLID_255_" x="288.1" y="171.5" class="st14" width="11.2" height="155"/>
	
		<linearGradient id="XMLID_85_" gradientUnits="userSpaceOnUse" x1="324.291" y1="101.4699" x2="324.291" y2="238.8077" gradientTransform="matrix(1 0 0 -1 0 428)">
		<stop  offset="0" style="stop-color:#FFA415"/>
		<stop  offset="1" style="stop-color:#FF4100"/>
	</linearGradient>
	<rect id="XMLID_256_" x="318.7" y="189.2" class="st15" width="11.2" height="137.3"/>
	
		<linearGradient id="XMLID_86_" gradientUnits="userSpaceOnUse" x1="354.9228" y1="101.4699" x2="354.9228" y2="234.8874" gradientTransform="matrix(1 0 0 -1 0 428)">
		<stop  offset="0" style="stop-color:#FFA415"/>
		<stop  offset="1" style="stop-color:#FF4100"/>
	</linearGradient>
	<rect id="XMLID_257_" x="349.3" y="193.1" class="st16" width="11.2" height="133.4"/>
	
		<linearGradient id="XMLID_87_" gradientUnits="userSpaceOnUse" x1="385.5303" y1="101.4951" x2="385.5303" y2="217.7139" gradientTransform="matrix(1 0 0 -1 0 428)">
		<stop  offset="0" style="stop-color:#FFA415"/>
		<stop  offset="1" style="stop-color:#FF4100"/>
	</linearGradient>
	<rect id="XMLID_258_" x="379.9" y="210.3" class="st17" width="11.2" height="116.2"/>
	
		<linearGradient id="XMLID_93_" gradientUnits="userSpaceOnUse" x1="416.1621" y1="101.4699" x2="416.1621" y2="264.4795" gradientTransform="matrix(1 0 0 -1 0 428)">
		<stop  offset="0" style="stop-color:#FFA415"/>
		<stop  offset="1" style="stop-color:#FF4100"/>
	</linearGradient>
	<rect id="XMLID_259_" x="410.6" y="163.5" class="st18" width="11.2" height="163"/>
	
		<linearGradient id="XMLID_95_" gradientUnits="userSpaceOnUse" x1="446.7697" y1="101.4951" x2="446.7697" y2="308.0584" gradientTransform="matrix(1 0 0 -1 0 428)">
		<stop  offset="0" style="stop-color:#FFA415"/>
		<stop  offset="1" style="stop-color:#FF4100"/>
	</linearGradient>
	<rect id="XMLID_260_" x="441.2" y="119.9" class="st19" width="11.2" height="206.6"/>
	<text id="XMLID_540_" transform="matrix(0.9589 0 0 1 69.6982 77.7588)" class="st20 st21 st22">H5大前端开发就业平均薪资统计图</text>
</g>
<text id="XMLID_131_" transform="matrix(1 0 0 1 518.6025 330.5117)" class="st0 st1 st23">0</text>
<g id="XMLID_130_">
	<text transform="matrix(1 0 0 1 518.6025 330.5117)" class="st0 st1 st23">0</text>
</g>
<g id="XMLID_125_">
	<g id="XMLID_126_">
		<line id="XMLID_129_" class="st4" x1="536.8" y1="325" x2="536.9" y2="325"/>
		<line id="XMLID_128_" class="st5" x1="537.9" y1="325" x2="955.2" y2="325"/>
		<line id="XMLID_127_" class="st4" x1="955.7" y1="325" x2="955.8" y2="325"/>
	</g>
</g>
<g id="XMLID_122_">
	<text transform="matrix(1 0 0 1 504.8203 292.9883)" class="st0 st1 st23">6000</text>
</g>
<g id="XMLID_118_">
	<text transform="matrix(0.7071 -0.7071 0.7071 0.7071 542.725 346.2971)" class="st0 st1 st24">3月</text>
</g>
<g id="XMLID_116_">
	<text transform="matrix(0.7071 -0.7071 0.7071 0.7071 576.5552 346.2975)" class="st0 st1 st24">4月</text>
</g>
<g id="XMLID_114_">
	<text transform="matrix(0.7071 -0.7071 0.7071 0.7071 608.2296 346.2966)" class="st0 st1 st24">5月</text>
</g>
<g id="XMLID_112_">
	<text transform="matrix(0.7071 -0.7071 0.7071 0.7071 669.4263 346.2963)" class="st0 st1 st24">7月</text>
</g>
<g id="XMLID_110_">
	<text transform="matrix(0.7071 -0.7071 0.7071 0.7071 703.2569 346.2978)" class="st0 st1 st24">8月</text>
</g>
<g id="XMLID_108_">
	<text transform="matrix(0.7071 -0.7071 0.7071 0.7071 734.9325 346.2969)" class="st0 st1 st24">9月</text>
</g>
<g id="XMLID_106_">
	<text transform="matrix(0.7071 -0.7071 0.7071 0.7071 763.24 349.6656)" class="st0 st1 st24">10月</text>
</g>
<g id="XMLID_104_">
	<text transform="matrix(0.7071 -0.7071 0.7071 0.7071 794.9147 349.6656)" class="st0 st1 st24">11月</text>
</g>
<g id="XMLID_102_">
	<text transform="matrix(0.7071 -0.7071 0.7071 0.7071 826.5903 349.6649)" class="st0 st1 st24">12月</text>
</g>
<g id="XMLID_100_">
	<text transform="matrix(0.7071 -0.7071 0.7071 0.7071 863.7892 346.298)" class="st0 st1 st24">1月</text>
</g>
<g id="XMLID_98_">
	<text transform="matrix(0.7071 -0.7071 0.7071 0.7071 895.4643 346.2977)" class="st0 st1 st24">2月</text>
</g>
<g id="XMLID_96_">
	<text transform="matrix(0.7071 -0.7071 0.7071 0.7071 923.326 350.1107)" class="st0 st1 st24">全年</text>
</g>
<g id="XMLID_94_">
	<text transform="matrix(0.7071 -0.7071 0.7071 0.7071 639.9062 346.2975)" class="st0 st1 st24">6月</text>
</g>
<g id="XMLID_92_">
	<text transform="matrix(1 0 0 1 504.8203 259.0049)" class="st0 st1 st23">8000</text>
</g>
<text id="XMLID_91_" transform="matrix(1 0 0 1 500.0576 225.0205)" class="st0 st1 st23">10000</text>
<text id="XMLID_90_" transform="matrix(1 0 0 1 500.0576 191.0361)" class="st0 st1 st23">12000</text>
<text id="XMLID_89_" transform="matrix(1 0 0 1 500.0576 157.0518)" class="st0 st1 st23">14000</text>
<text id="XMLID_88_" transform="matrix(1 0 0 1 500.0576 123.0698)" class="st0 st1 st23">16000</text>
<g id="XMLID_82_">
	<g>
		<line class="st4" x1="537.3" y1="116.9" x2="537.8" y2="116.9"/>
		<line class="st25" x1="541.7" y1="116.9" x2="953.8" y2="116.9"/>
		<line class="st4" x1="955.8" y1="116.9" x2="956.3" y2="116.9"/>
	</g>
</g>
<g id="XMLID_76_">
	<g>
		<line class="st4" x1="537.3" y1="289.7" x2="537.8" y2="289.7"/>
		<line class="st25" x1="541.7" y1="289.7" x2="953.8" y2="289.7"/>
		<line class="st4" x1="955.8" y1="289.7" x2="956.3" y2="289.7"/>
	</g>
</g>
<g id="XMLID_43_">
	<g>
		<line class="st4" x1="537.3" y1="221.7" x2="537.8" y2="221.7"/>
		<line class="st25" x1="541.7" y1="221.7" x2="953.8" y2="221.7"/>
		<line class="st4" x1="955.8" y1="221.7" x2="956.3" y2="221.7"/>
	</g>
</g>
<g id="XMLID_37_">
	<g>
		<line class="st4" x1="537.3" y1="254.5" x2="537.8" y2="254.5"/>
		<line class="st25" x1="541.7" y1="254.5" x2="953.8" y2="254.5"/>
		<line class="st4" x1="955.8" y1="254.5" x2="956.3" y2="254.5"/>
	</g>
</g>
<g id="XMLID_32_">
	<g>
		<line class="st4" x1="537.3" y1="186.5" x2="537.8" y2="186.5"/>
		<line class="st25" x1="541.7" y1="186.5" x2="953.8" y2="186.5"/>
		<line class="st4" x1="955.8" y1="186.5" x2="956.3" y2="186.5"/>
	</g>
</g>
<g id="XMLID_18_">
	<g>
		<line class="st4" x1="537.3" y1="152.9" x2="537.8" y2="152.9"/>
		<line class="st25" x1="541.7" y1="152.9" x2="953.8" y2="152.9"/>
		<line class="st4" x1="955.8" y1="152.9" x2="956.3" y2="152.9"/>
	</g>
</g>
<linearGradient id="XMLID_97_" gradientUnits="userSpaceOnUse" x1="549.3756" y1="324.4721" x2="549.3756" y2="186.4745">
	<stop  offset="0" style="stop-color:#FFA415"/>
	<stop  offset="1" style="stop-color:#FF4100"/>
</linearGradient>
<rect id="XMLID_17_" x="543.5" y="186.5" class="st26" width="11.7" height="138"/>
<linearGradient id="XMLID_99_" gradientUnits="userSpaceOnUse" x1="581.4643" y1="324.4721" x2="581.4643" y2="193.718">
	<stop  offset="0" style="stop-color:#FFA415"/>
	<stop  offset="1" style="stop-color:#FF4100"/>
</linearGradient>
<rect id="XMLID_16_" x="575.6" y="193.7" class="st27" width="11.7" height="130.8"/>
<linearGradient id="XMLID_101_" gradientUnits="userSpaceOnUse" x1="613.553" y1="324.4721" x2="613.553" y2="190.4121">
	<stop  offset="0" style="stop-color:#FFA415"/>
	<stop  offset="1" style="stop-color:#FF4100"/>
</linearGradient>
<rect id="XMLID_15_" x="607.7" y="190.4" class="st28" width="11.7" height="134.1"/>
<linearGradient id="XMLID_103_" gradientUnits="userSpaceOnUse" x1="645.6417" y1="324.4721" x2="645.6417" y2="157.0525">
	<stop  offset="0" style="stop-color:#FFA415"/>
	<stop  offset="1" style="stop-color:#FF4100"/>
</linearGradient>
<rect id="XMLID_14_" x="639.8" y="157.1" class="st29" width="11.7" height="167.4"/>
<linearGradient id="XMLID_105_" gradientUnits="userSpaceOnUse" x1="677.7303" y1="324.4721" x2="677.7303" y2="166.7279">
	<stop  offset="0" style="stop-color:#FFA415"/>
	<stop  offset="1" style="stop-color:#FF4100"/>
</linearGradient>
<rect id="XMLID_13_" x="671.9" y="166.7" class="st30" width="11.7" height="157.7"/>
<linearGradient id="XMLID_107_" gradientUnits="userSpaceOnUse" x1="709.819" y1="324.4721" x2="709.819" y2="174.1532">
	<stop  offset="0" style="stop-color:#FFA415"/>
	<stop  offset="1" style="stop-color:#FF4100"/>
</linearGradient>
<rect id="XMLID_12_" x="704" y="174.2" class="st31" width="11.7" height="150.3"/>
<linearGradient id="XMLID_109_" gradientUnits="userSpaceOnUse" x1="741.9077" y1="324.4721" x2="741.9077" y2="188.49">
	<stop  offset="0" style="stop-color:#FFA415"/>
	<stop  offset="1" style="stop-color:#FF4100"/>
</linearGradient>
<rect id="XMLID_10_" x="736" y="188.5" class="st32" width="11.7" height="136"/>
<linearGradient id="XMLID_111_" gradientUnits="userSpaceOnUse" x1="773.9964" y1="324.4721" x2="773.9964" y2="178.291">
	<stop  offset="0" style="stop-color:#FFA415"/>
	<stop  offset="1" style="stop-color:#FF4100"/>
</linearGradient>
<rect id="XMLID_9_" x="768.1" y="178.3" class="st33" width="11.7" height="146.2"/>
<linearGradient id="XMLID_113_" gradientUnits="userSpaceOnUse" x1="806.0851" y1="324.4721" x2="806.0851" y2="212.1209">
	<stop  offset="0" style="stop-color:#FFA415"/>
	<stop  offset="1" style="stop-color:#FF4100"/>
</linearGradient>
<rect id="XMLID_8_" x="800.2" y="212.1" class="st34" width="11.7" height="112.4"/>
<linearGradient id="XMLID_115_" gradientUnits="userSpaceOnUse" x1="838.1738" y1="324.4721" x2="838.1738" y2="214.0423">
	<stop  offset="0" style="stop-color:#FFA415"/>
	<stop  offset="1" style="stop-color:#FF4100"/>
</linearGradient>
<rect id="XMLID_7_" x="832.3" y="214" class="st35" width="11.7" height="110.4"/>
<linearGradient id="XMLID_117_" gradientUnits="userSpaceOnUse" x1="870.2625" y1="324.4721" x2="870.2625" y2="238.6634">
	<stop  offset="0" style="stop-color:#FFA415"/>
	<stop  offset="1" style="stop-color:#FF4100"/>
</linearGradient>
<rect id="XMLID_6_" x="864.4" y="238.7" class="st36" width="11.7" height="85.8"/>
<linearGradient id="XMLID_119_" gradientUnits="userSpaceOnUse" x1="902.3511" y1="324.4721" x2="902.3511" y2="202.5585">
	<stop  offset="0" style="stop-color:#FFA415"/>
	<stop  offset="1" style="stop-color:#FF4100"/>
</linearGradient>
<rect id="XMLID_5_" x="896.5" y="202.6" class="st37" width="11.7" height="121.9"/>
<linearGradient id="XMLID_120_" gradientUnits="userSpaceOnUse" x1="934.4398" y1="324.4721" x2="934.4398" y2="152.8547">
	<stop  offset="0" style="stop-color:#FFA415"/>
	<stop  offset="1" style="stop-color:#FF4100"/>
</linearGradient>
<rect id="XMLID_4_" x="928.6" y="152.9" class="st38" width="11.7" height="171.6"/>
<text id="XMLID_3_" transform="matrix(1 0 0 1 538.2734 74.5)" class="st20 st21 st22">测试就业平均薪资统计图</text>
<text transform="matrix(1 0 0 1 91.4775 382.1553)" class="st0 st39 st40">2018年3月-2019年真实数据统计图</text>
<text transform="matrix(1 0 0 1 562.4898 382.1553)" class="st0 st39 st40">2018年3月-2019年真实数据统计图</text>
<linearGradient id="XMLID_121_" gradientUnits="userSpaceOnUse" x1="549.3756" y1="43.831" x2="549.3756" y2="53.8447" gradientTransform="matrix(1 0 0 -1 0 428)">
	<stop  offset="0" style="stop-color:#FFA415"/>
	<stop  offset="1" style="stop-color:#FF4100"/>
</linearGradient>
<rect id="XMLID_60_" x="543.8" y="374.2" class="st41" width="11.2" height="10"/>
</svg>
