<?xml version="1.0" encoding="utf-8"?>
<!-- Generator: Adobe Illustrator 23.0.2, SVG Export Plug-In . SVG Version: 6.00 Build 0)  -->
<svg version="1.1" id="图层_1" xmlns="http://www.w3.org/2000/svg" xmlns:xlink="http://www.w3.org/1999/xlink" x="0px" y="0px"
	 viewBox="0 0 311.5 389" style="enable-background:new 0 0 311.5 389;" xml:space="preserve">
<style type="text/css">
	.st0{fill:#007AFF;}
	.st1{fill:#0A4DE2;}
	.st2{fill:#B8D0FF;stroke:#000000;stroke-width:2;stroke-miterlimit:10;}
	.st3{fill:#F3F4FF;stroke:#000000;stroke-miterlimit:10;stroke-dasharray:9.4187,26.5088;}
	.st4{fill:#0A4DE2;stroke:#231815;stroke-width:3;stroke-miterlimit:10;}
	.st5{fill:#190AE2;}
</style>
<g>
	<g>
		<path class="st0" d="M240.4,389H35.2C15.8,389,0,375.2,0,358.1V61.4c0-17,15.8-30.9,35.2-30.9h205.2c19.4,0,35.2,13.8,35.2,30.9
			v296.7C275.7,375.2,259.9,389,240.4,389z"/>
		<path class="st1" d="M253.9,39.3c6.5,10.7,10.5,26,10.5,43v236.6c0,32.3-14.7,58.5-32.7,58.5H17.7c-5,0-9.7-2-14-5.6
			c5.8,9.6,13.6,15.5,22.2,15.5h213.9c18.1,0,32.7-26.2,32.7-58.5V92.3C272.6,68.9,265,48.7,253.9,39.3z"/>
		<path class="st2" d="M227.3,371.9H48.4c-19.4,0-35.2-13.8-35.2-30.9V78.5c0-17,15.8-30.9,35.2-30.9h178.8
			c19.4,0,35.2,13.8,35.2,30.9V341C262.5,358.1,246.7,371.9,227.3,371.9z"/>
		<path class="st3" d="M216.8,353.5h-158c-19.4,0-35.2-13.8-35.2-30.9V96.9c0-17,15.8-30.9,35.2-30.9h158
			c19.4,0,35.2,13.8,35.2,30.9v225.8C252.1,339.7,236.3,353.5,216.8,353.5z"/>
	</g>
	<path class="st4" d="M281.7,4.5l3.4,23.1c0.2,1.1,0.9,2.1,1.9,2.6l21,10.3c2.6,1.3,2.6,5,0,6.3l-21,10.3c-1,0.5-1.8,1.5-1.9,2.6
		l-3.4,23.1c-0.4,2.9-4,4-6,1.9l-16.4-16.7c-0.8-0.8-2-1.2-3.1-1l-23.1,3.9c-2.9,0.5-5.1-2.5-3.7-5.1l10.9-20.6c0.5-1,0.5-2.2,0-3.3
		l-10.9-20.6c-1.4-2.6,0.8-5.6,3.7-5.1l23.1,3.9c1.1,0.2,2.3-0.2,3.1-1l16.4-16.7C277.7,0.5,281.3,1.6,281.7,4.5z"/>
	<path class="st5" d="M278.8,3.1c0,0,11.9,59.2-46.9,65.8l27.4-2.7l18.4,18.7c0,0,4.3,3.5,6.3-26.1c1.9-29.6-3-51.1-3.2-53.3
		C280.6,3.9,278.8,3.1,278.8,3.1z"/>
</g>
</svg>
